<svg width="139" height="22" xmlns="http://www.w3.org/2000/svg"><g fill="none"><path d="M133.374 7.744c2.639 0 4.758 1.963 4.758 4.706 0 2.743-2.119 4.706-4.758 4.706s-4.758-1.963-4.758-4.706c0-2.743 2.119-4.706 4.758-4.706zm0 7.748c1.716 0 2.873-1.3 2.873-3.042 0-1.742-1.157-3.042-2.873-3.042-1.716 0-2.873 1.3-2.873 3.042 0 1.742 1.157 3.042 2.873 3.042zM125.845 17l-2.015-3.497h-1.274V17h-1.807V7.9h3.419c1.989 0 3.159 1.183 3.159 2.769 0 .858-.351 1.95-1.729 2.496L127.925 17h-2.08zm-.325-6.318c0-.806-.585-1.222-1.586-1.222h-1.378v2.47h1.378c1.001 0 1.586-.468 1.586-1.248zm-11.077 3.237V17h-1.794V7.9h3.081c2.145 0 3.276 1.339 3.276 2.99 0 1.638-1.131 3.029-3.276 3.029h-1.287zm1.014-4.459h-1.014v2.912h1.014c.988 0 1.703-.468 1.703-1.482s-.715-1.43-1.703-1.43z" fill="#6400E4"/><path d="M4.213 14.896c-.192-.562-.278-1.275-.278-2.226 0-.95.086-1.664.278-2.226.513-1.599 1.86-2.485 3.637-2.485 1.326 0 2.353.54 3.06 1.404a.18.18 0 0 1-.022.26L9.732 10.66c-.086.066-.192.066-.256-.043-.45-.497-.9-.778-1.626-.778-.792 0-1.39.39-1.648 1.167-.128.454-.17.973-.17 1.664 0 .692.042 1.232.192 1.686.257.756.856 1.167 1.647 1.167.727 0 1.198-.28 1.626-.778.064-.086.171-.086.257-.022l1.155 1.038c.086.065.064.173.022.26-.707.842-1.734 1.382-3.06 1.382-1.775-.021-3.145-.886-3.658-2.507zm39.704 0c-.192-.562-.278-1.275-.278-2.226 0-.95.086-1.664.278-2.226.514-1.599 1.862-2.485 3.637-2.485 1.326 0 2.375.54 3.06 1.404a.18.18 0 0 1-.022.26l-1.155 1.037c-.086.066-.193.066-.257-.043-.45-.497-.899-.778-1.626-.778-.791 0-1.39.39-1.647 1.167-.15.454-.193.973-.193 1.664 0 .692.043 1.232.193 1.686.257.756.856 1.167 1.647 1.167.727 0 1.198-.28 1.626-.778.064-.086.171-.086.257-.022l1.155 1.038c.086.065.064.173.022.26-.707.842-1.734 1.382-3.06 1.382-1.775-.021-3.123-.886-3.637-2.507zm46.552 2.27c-.107 0-.192-.066-.192-.195v-5.187c0-1.167-.578-1.967-1.67-1.967-1.069 0-1.69.8-1.69 1.967v5.187c0 .108-.064.195-.192.195h-1.69c-.107 0-.192-.066-.192-.195v-5.187c0-1.167-.578-1.967-1.67-1.967-1.069 0-1.69.8-1.69 1.967v5.187c0 .108-.063.195-.192.195h-1.69c-.107 0-.192-.066-.192-.195V8.348c0-.108.064-.195.192-.195h1.69c.107 0 .193.065.193.195v.648h.021c.385-.562 1.155-1.037 2.332-1.037 1.048 0 1.883.432 2.418 1.189h.021c.684-.757 1.562-1.19 2.824-1.19 2.054 0 3.209 1.427 3.209 3.35v5.685c0 .108-.064.194-.193.194l-1.647-.021zm4.228 3.177c-.108 0-.193-.066-.193-.195v-1.491c0-.108.064-.194.193-.194h.32c.707 0 1.048-.325 1.327-1.06l.257-.756-3.231-8.494c-.043-.108.043-.194.15-.194h1.818c.107 0 .193.065.214.194l1.99 5.879h.043l1.904-5.879c.043-.108.107-.194.213-.194h1.733c.108 0 .193.065.15.194l-3.337 9.401c-.77 2.14-1.498 2.81-2.974 2.81l-.577-.021zm-76.93-6.009c.15-.475.192-.908.192-1.664 0-.756-.043-1.167-.192-1.664-.257-.757-.835-1.167-1.647-1.167-.813 0-1.412.432-1.669 1.167-.15.475-.193.886-.193 1.664 0 .756.043 1.189.193 1.664.257.757.835 1.167 1.669 1.167.812.022 1.39-.41 1.647-1.167zm-5.306.562c-.192-.627-.3-1.232-.3-2.226s.087-1.578.3-2.226c.492-1.578 1.84-2.485 3.637-2.485 1.776 0 3.124.907 3.615 2.485.193.627.3 1.232.3 2.226s-.086 1.578-.3 2.226c-.491 1.578-1.84 2.485-3.615 2.485-1.775 0-3.123-.907-3.637-2.485zm43.085-6.937c-1.455 0-2.418.346-3.124.886a.2.2 0 0 0-.043.237l.685 1.233c.064.086.171.107.257.043.428-.346 1.027-.627 2.01-.627 1.434 0 1.926.432 1.969 1.405v3.004c0 1.037-.706 1.534-1.968 1.534-.984 0-1.519-.367-1.519-1.124 0-.842.577-1.21 1.904-1.21h.407c.106 0 .192-.065.192-.194v-1.189c0-.108-.064-.195-.192-.195h-.728c-2.182 0-3.53.908-3.53 2.853 0 1.88 1.348 2.745 2.974 2.745 1.24 0 2.075-.432 2.481-1.037h.022v.648c0 .108.064.195.192.195h1.54c.108 0 .193-.066.193-.195v-5.857c-.043-2.204-1.027-3.155-3.722-3.155zm-21.66 3.803c-.043 0-.086.022-.086.087v1.405c0 .043.021.086.085.086h4.536c.128 0 .192-.065.192-.194 0-1.448-.085-2.075-.3-2.702-.491-1.534-1.818-2.485-3.636-2.485-1.754 0-3.123.908-3.616 2.485-.192.584-.299 1.297-.299 2.226 0 .93.128 1.621.32 2.205.493 1.577 1.82 2.507 3.68 2.507 1.626 0 2.867-.627 3.637-1.535.065-.086.065-.194-.021-.259l-1.07-.973c-.085-.065-.192-.065-.278.044-.449.497-1.07.864-2.075.864-.984 0-1.69-.476-1.968-1.361a2.573 2.573 0 0 1-.107-.39 7.349 7.349 0 0 1-.107-1.296c.021-.519.043-.843.107-1.254v-.043c.021-.108.043-.194.064-.28.235-.736.899-1.168 1.733-1.168.834 0 1.476.432 1.711 1.167.065.216.108.454.108.756 0 .065-.043.109-.108.109h-2.503zm-4.83-7.42h-1.69c-.107 0-.192.064-.192.194v8.493a4.85 4.85 0 0 1-.171 1.167c-.236.757-.813 1.146-1.648 1.146-.813 0-1.39-.411-1.625-1.146-.13-.41-.193-.864-.193-1.686 0-.82.064-1.275.193-1.685.235-.735.79-1.146 1.583-1.167h.727c.043 0 .064-.043.064-.087V7.864c0-.043-.021-.065-.064-.086h-1.262c-1.476.021-2.546.734-2.995 2.16-.214.692-.321 1.319-.321 2.53 0 1.21.086 1.836.32 2.528.45 1.448 1.562 2.161 3.06 2.161 1.198 0 1.925-.454 2.332-1.059h.021v.67c0 .108.065.195.193.195h1.69c.107 0 .192-.065.192-.195V4.448c-.021-.042-.107-.107-.213-.107zm44.176 7.42c-.043 0-.086.022-.086.087v1.405c0 .043.022.086.086.086h4.536c.128 0 .192-.065.192-.194 0-1.448-.086-2.075-.3-2.702-.492-1.534-1.818-2.485-3.637-2.485-1.754 0-3.123.908-3.615 2.485-.192.584-.3 1.297-.3 2.226 0 .93.13 1.621.322 2.205.492 1.577 1.818 2.507 3.68 2.507 1.625 0 2.866-.627 3.636-1.535.064-.086.064-.194-.021-.259l-1.07-.973c-.085-.065-.192-.065-.278.044-.45.497-1.07.864-2.075.864-.984 0-1.69-.476-1.968-1.361a2.7 2.7 0 0 1-.108-.39 7.349 7.349 0 0 1-.106-1.296c.021-.519.043-.843.107-1.254v-.043c.021-.108.043-.194.064-.28.235-.736.898-1.168 1.732-1.168.835 0 1.477.432 1.712 1.167.064.216.107.454.107.756 0 .065-.043.109-.107.109h-2.503zm-4.829-7.42h-1.69c-.107 0-.192.064-.192.194v8.515a4.853 4.853 0 0 1-.171 1.167c-.236.756-.813 1.167-1.648 1.167-.834 0-1.39-.41-1.626-1.167-.128-.41-.192-.865-.192-1.686s.064-1.275.192-1.686c.235-.734.792-1.145 1.584-1.167h.727c.107 0 .192-.064.192-.194V7.993c0-.108-.064-.194-.192-.194h-1.241c-1.476.022-2.567.735-3.016 2.161-.214.692-.321 1.319-.321 2.55 0 1.21.085 1.86.32 2.55.45 1.449 1.562 2.162 3.06 2.162 1.198 0 1.925-.454 2.353-1.059h.022v.67c0 .108.064.194.192.194h1.69c.107 0 .193-.065.193-.194V4.514c-.043-.108-.13-.173-.236-.173zM43.997 21.343c0 .272.062.362.358.362h5.723c.274 0 .357-.068.357-.362v-1.447c0-.272-.062-.362-.357-.362h-5.723c-.306 0-.358.067-.358.362v1.447z" fill="#0D222D"/><path fill="#6400E4" d="M103.55 17l3.176-9.1h2.06L105.61 17z"/><path d="M2.5 19.535h-.354c.043-.022 0-.086 0 0V2.171c0 .086.043.021 0 0H40.42c-.043.021 0 .086 0 0v17.002c0 .255-.043.32 0 .362H2.5zM42.566 0c-.043.065-.043.043 0 0-.043.043-.043.043 0 0-.086.022-.129 0-.358 0H0c.043.043 0 .109 0 .362v21.344c0-.109.021-.065 0 0h42.208c.23 0 .272-.022.358 0-.021-.087 0-.13 0-.362V0z" fill="#0D222D"/></g></svg>